<svg width="23" height="12" viewBox="0 0 23 12" fill="none" xmlns="http://www.w3.org/2000/svg">
<path d="M14.0146 9.89546V0.512542C14.0146 0.230658 13.7822 0 13.4983 0H0.516298C0.232341 0 0 0.230639 0 0.512542V9.89546C0 10.1774 0.232341 10.408 0.516298 10.408H1.20607C1.20607 9.19106 2.20336 8.201 3.42919 8.201C4.65502 8.201 5.6523 9.19108 5.6523 10.408H5.97274H13.4983C13.7822 10.408 14.0146 10.1774 14.0146 9.89546Z" fill="url(#paint0_linear_1_239)"/>
<path d="M1.82561 10.408C1.82561 9.5288 2.54355 8.81609 3.42917 8.81609C4.31481 8.81609 5.03275 9.5288 5.03275 10.408C5.03275 11.2873 4.31481 12 3.42917 12C2.54355 12 1.82561 11.2873 1.82561 10.408Z" fill="url(#paint1_linear_1_239)"/>
<path d="M23 9.89546V6.87358C23 6.59167 22.8348 6.1989 22.6329 6.00067L19.083 2.51624C18.881 2.31807 18.4835 2.15589 18.1995 2.15589H15.204C14.92 2.15589 14.6877 2.38653 14.6877 2.66845V9.89546C14.6877 10.1774 14.92 10.408 15.204 10.408H15.8571C15.8571 9.19106 16.8544 8.201 18.0802 8.201C19.306 8.201 20.3033 9.19108 20.3033 10.408H20.7262H22.4837C22.7677 10.408 23 10.1774 23 9.89546Z" fill="url(#paint2_linear_1_239)"/>
<path d="M16.4766 10.408C16.4766 9.5288 17.1946 8.81609 18.0802 8.81609C18.9658 8.81609 19.6838 9.5288 19.6838 10.408C19.6838 11.2872 18.9658 12 18.0802 12C17.1946 12 16.4766 11.2872 16.4766 10.408Z" fill="url(#paint3_linear_1_239)"/>
<defs>
<linearGradient id="paint0_linear_1_239" x1="2.42778" y1="0.890625" x2="17.7802" y2="15.687" gradientUnits="userSpaceOnUse">
<stop stop-color="#333333"/>
<stop offset="1" stop-color="#1E1E1E"/>
</linearGradient>
<linearGradient id="paint1_linear_1_239" x1="2.42778" y1="0.890625" x2="17.7802" y2="15.687" gradientUnits="userSpaceOnUse">
<stop stop-color="#333333"/>
<stop offset="1" stop-color="#1E1E1E"/>
</linearGradient>
<linearGradient id="paint2_linear_1_239" x1="2.42778" y1="0.890625" x2="17.7802" y2="15.687" gradientUnits="userSpaceOnUse">
<stop stop-color="#333333"/>
<stop offset="1" stop-color="#1E1E1E"/>
</linearGradient>
<linearGradient id="paint3_linear_1_239" x1="2.42778" y1="0.890625" x2="17.7802" y2="15.687" gradientUnits="userSpaceOnUse">
<stop stop-color="#333333"/>
<stop offset="1" stop-color="#1E1E1E"/>
</linearGradient>
</defs>
</svg>
